<svg width="512" height="512" viewBox="0 0 512 512" fill="none" xmlns="http://www.w3.org/2000/svg">
<rect width="512" height="512" rx="80" fill="#050505"/>
<path d="M277.848 149.065C193.739 205.116 154.889 302.628 145.977 344.378C163.767 215.145 232.016 136.947 268.383 114.285C339.571 69.9256 392.128 80.9662 408 91.1396C406.903 154.894 342.269 202.002 310.089 217.587C321.14 219.47 331.626 218.946 335.487 218.448C346.237 216.259 355.139 208.324 358.247 204.63C331.397 274.816 256.657 309.052 222.644 317.397C232.14 329.986 252.384 326.875 261.32 323.746C237.598 368.541 153.146 380.745 150.14 382.392C147.133 384.038 144.524 390.925 144.404 393.324C153.61 383.308 163.589 395.91 167.428 403.464C161.298 398.254 151.133 400.854 146.816 402.806C134.07 406.592 129.459 427.081 128.311 443.438C128.114 447.683 128.032 451.917 128.073 456.137C127.937 452.593 127.978 448.19 128.311 443.438C133.81 325.305 229.182 198.942 277.848 149.065Z" fill="#EEEFF2"/>
</svg>
