<svg xmlns="http://www.w3.org/2000/svg" xmlns:xlink="http://www.w3.org/1999/xlink" viewBox="0 0 366.75 449.78"><defs><style>.cls-1{fill:url(#linear-gradient);}.cls-2{font-size:72px;fill:#231f20;font-family:SnellRoundhand, Snell Roundhand;}</style><linearGradient id="linear-gradient" x1="99.26" y1="185" x2="258.75" y2="185" gradientUnits="userSpaceOnUse"><stop offset="0" stop-color="#2484c6" stop-opacity="0"/><stop offset="1" stop-color="#2484c6"/></linearGradient></defs><title>featherstore</title><g id="Layer_2" data-name="Layer 2"><g id="Layer_1-2" data-name="Layer 1"><path class="cls-1" d="M258.57,39.49a121.86,121.86,0,0,0-2.11-21.8,33.09,33.09,0,0,1-.85-8.3c-6.89-4.5-13.64.7-13.64.7s-2.39-3.66-1.27-9.7c-6.19-1.69-13.92,2.72-13.92,2.72a31.87,31.87,0,0,0-8.26,14.63C203.9,32.36,179.89,69.5,179.89,69.5s-1.88,13.13.37,43.14c-7.12-7.13-4.87-22.88-4.87-22.88S163.76,120.89,161.88,131s-30.76,69-30.76,69a375.7,375.7,0,0,0,6,61.14c-12.75-6.75-11.25-42.76-11.25-42.76s-8.25,31.51-4.88,34.89,7.51,32.63,11.26,36.38c.51,1.6-12.8,52.66-27.43,71.23s3.94,3.37,6.75.56,33.62-71,33.62-71,32.07-8.16,49.09-27.85,38-73.85,38-73.85-16.84,4.66-24,5.77c7.17-3.24,27.85-19.42,27.85-19.42a519.39,519.39,0,0,1,14.49-53.17C260.68,90.69,258.57,51,258.57,39.49ZM173,233.42c-8.72,17.12-24.53,34.93-27.43,38.22a3.87,3.87,0,0,1-.33.42c-.28.29-.14.12.33-.42,2.88-4,15.66-30.78,21.05-40.84,5.63-10.51,68.65-207.07,68.65-207.07C231.51,58.62,183.12,213.54,173,233.42Z"/><text class="cls-2" transform="translate(40.75 418.82)">featherstore</text></g></g></svg>